<svg width="462" height="44" viewBox="0 0 462 44" fill="none" xmlns="http://www.w3.org/2000/svg">
<g clip-path="url(#clip0_2_230)">
<path d="M1 1H461V43H1V1Z" stroke="#B5614D" stroke-width="2"/>
<path d="M385.93 20.8804C384.885 20.5799 384.123 20.2118 383.645 19.7759C383.171 19.3358 382.934 18.7941 382.934 18.1509C382.934 17.423 383.224 16.8221 383.804 16.3481C384.388 15.87 385.145 15.6309 386.076 15.6309C386.711 15.6309 387.276 15.7536 387.771 15.999C388.27 16.2445 388.655 16.583 388.926 17.0146C389.201 17.4463 389.339 17.9181 389.339 18.4302H388.114C388.114 17.8716 387.936 17.4336 387.58 17.1162C387.225 16.7946 386.724 16.6338 386.076 16.6338C385.475 16.6338 385.005 16.7671 384.667 17.0337C384.333 17.2961 384.165 17.6621 384.165 18.1318C384.165 18.5085 384.324 18.828 384.641 19.0903C384.963 19.3485 385.507 19.5854 386.273 19.8013C387.043 20.0171 387.644 20.2562 388.076 20.5186C388.511 20.7767 388.833 21.0793 389.04 21.4263C389.252 21.7733 389.358 22.1816 389.358 22.6514C389.358 23.4004 389.066 24.0013 388.482 24.4541C387.898 24.9027 387.117 25.127 386.14 25.127C385.505 25.127 384.912 25.0063 384.362 24.7651C383.812 24.5197 383.387 24.1854 383.086 23.7622C382.79 23.339 382.642 22.8587 382.642 22.3213H383.867C383.867 22.8799 384.072 23.3221 384.483 23.6479C384.898 23.9696 385.45 24.1304 386.14 24.1304C386.783 24.1304 387.276 23.9992 387.619 23.7368C387.961 23.4744 388.133 23.1169 388.133 22.6641C388.133 22.2113 387.974 21.8621 387.657 21.6167C387.339 21.367 386.764 21.1216 385.93 20.8804ZM397.432 15.7578V22.042C397.428 22.9137 397.153 23.6268 396.607 24.1812C396.065 24.7355 395.329 25.0465 394.398 25.1143L394.074 25.127C393.063 25.127 392.257 24.854 391.656 24.3081C391.055 23.7622 390.75 23.0111 390.742 22.0547V15.7578H391.948V22.0166C391.948 22.6852 392.132 23.2057 392.5 23.5781C392.868 23.9463 393.393 24.1304 394.074 24.1304C394.764 24.1304 395.291 23.9463 395.655 23.5781C396.023 23.21 396.207 22.6916 396.207 22.0229V15.7578H397.432ZM399.355 25V15.7578H402.377C403.38 15.7578 404.133 15.9652 404.637 16.3799C405.144 16.7946 405.398 17.4082 405.398 18.2207C405.398 18.6523 405.276 19.0353 405.03 19.3696C404.785 19.6997 404.45 19.9557 404.027 20.1377C404.527 20.2773 404.92 20.5439 405.208 20.9375C405.5 21.3268 405.646 21.7923 405.646 22.334C405.646 23.1634 405.377 23.8151 404.84 24.2891C404.302 24.763 403.543 25 402.561 25H399.355ZM400.574 20.6772V24.0034H402.586C403.153 24.0034 403.6 23.8574 403.926 23.5654C404.256 23.2692 404.421 22.863 404.421 22.3467C404.421 21.2337 403.816 20.6772 402.605 20.6772H400.574ZM400.574 19.6997H402.415C402.948 19.6997 403.373 19.5664 403.691 19.2998C404.012 19.0332 404.173 18.6714 404.173 18.2144C404.173 17.7065 404.025 17.3384 403.729 17.1099C403.433 16.8771 402.982 16.7607 402.377 16.7607H400.574V19.6997ZM410.178 20.8804C409.133 20.5799 408.371 20.2118 407.893 19.7759C407.419 19.3358 407.182 18.7941 407.182 18.1509C407.182 17.423 407.472 16.8221 408.052 16.3481C408.636 15.87 409.393 15.6309 410.324 15.6309C410.959 15.6309 411.524 15.7536 412.019 15.999C412.518 16.2445 412.903 16.583 413.174 17.0146C413.449 17.4463 413.587 17.9181 413.587 18.4302H412.362C412.362 17.8716 412.184 17.4336 411.828 17.1162C411.473 16.7946 410.972 16.6338 410.324 16.6338C409.723 16.6338 409.253 16.7671 408.915 17.0337C408.581 17.2961 408.413 17.6621 408.413 18.1318C408.413 18.5085 408.572 18.828 408.89 19.0903C409.211 19.3485 409.755 19.5854 410.521 19.8013C411.291 20.0171 411.892 20.2562 412.324 20.5186C412.759 20.7767 413.081 21.0793 413.288 21.4263C413.5 21.7733 413.606 22.1816 413.606 22.6514C413.606 23.4004 413.314 24.0013 412.73 24.4541C412.146 24.9027 411.365 25.127 410.388 25.127C409.753 25.127 409.16 25.0063 408.61 24.7651C408.06 24.5197 407.635 24.1854 407.334 23.7622C407.038 23.339 406.89 22.8587 406.89 22.3213H408.115C408.115 22.8799 408.32 23.3221 408.731 23.6479C409.146 23.9696 409.698 24.1304 410.388 24.1304C411.031 24.1304 411.524 23.9992 411.867 23.7368C412.209 23.4744 412.381 23.1169 412.381 22.6641C412.381 22.2113 412.222 21.8621 411.905 21.6167C411.587 21.367 411.012 21.1216 410.178 20.8804ZM421.972 22.0674C421.858 23.0449 421.496 23.8003 420.887 24.3335C420.281 24.8625 419.475 25.127 418.468 25.127C417.376 25.127 416.5 24.7355 415.84 23.9526C415.184 23.1698 414.856 22.1224 414.856 20.8105V19.9219C414.856 19.0628 415.009 18.3075 415.313 17.6558C415.622 17.0041 416.058 16.5047 416.621 16.1577C417.184 15.8065 417.835 15.6309 418.576 15.6309C419.558 15.6309 420.345 15.9059 420.937 16.4561C421.53 17.002 421.875 17.7594 421.972 18.7285H420.747C420.641 17.9922 420.411 17.459 420.055 17.1289C419.704 16.7988 419.211 16.6338 418.576 16.6338C417.797 16.6338 417.186 16.9215 416.742 17.4971C416.301 18.0726 416.081 18.8914 416.081 19.9536V20.8486C416.081 21.8516 416.291 22.6493 416.71 23.2417C417.129 23.8341 417.715 24.1304 418.468 24.1304C419.145 24.1304 419.664 23.978 420.023 23.6733C420.387 23.3644 420.628 22.8291 420.747 22.0674H421.972ZM427.031 21.2612H424.86V25H423.635V15.7578H426.695C427.736 15.7578 428.536 15.9948 429.094 16.4688C429.657 16.9427 429.938 17.6325 429.938 18.5381C429.938 19.1136 429.782 19.6151 429.469 20.0425C429.16 20.4699 428.728 20.7894 428.174 21.001L430.345 24.9238V25H429.037L427.031 21.2612ZM424.86 20.2646H426.733C427.338 20.2646 427.818 20.1081 428.174 19.7949C428.533 19.4818 428.713 19.0628 428.713 18.5381C428.713 17.9668 428.542 17.5288 428.199 17.2241C427.861 16.9194 427.37 16.765 426.726 16.7607H424.86V20.2646ZM432.96 25H431.741V15.7578H432.96V25ZM435.194 25V15.7578H438.216C439.219 15.7578 439.972 15.9652 440.475 16.3799C440.983 16.7946 441.237 17.4082 441.237 18.2207C441.237 18.6523 441.114 19.0353 440.869 19.3696C440.624 19.6997 440.289 19.9557 439.866 20.1377C440.365 20.2773 440.759 20.5439 441.047 20.9375C441.339 21.3268 441.485 21.7923 441.485 22.334C441.485 23.1634 441.216 23.8151 440.679 24.2891C440.141 24.763 439.382 25 438.4 25H435.194ZM436.413 20.6772V24.0034H438.425C438.992 24.0034 439.439 23.8574 439.765 23.5654C440.095 23.2692 440.26 22.863 440.26 22.3467C440.26 21.2337 439.655 20.6772 438.444 20.6772H436.413ZM436.413 19.6997H438.254C438.787 19.6997 439.212 19.5664 439.53 19.2998C439.851 19.0332 440.012 18.6714 440.012 18.2144C440.012 17.7065 439.864 17.3384 439.568 17.1099C439.272 16.8771 438.821 16.7607 438.216 16.7607H436.413V19.6997ZM448.518 20.728H444.513V24.0034H449.165V25H443.294V15.7578H449.102V16.7607H444.513V19.7314H448.518V20.728Z" fill="#B45F4D"/>
</g>
<defs>
<clipPath id="clip0_2_230">
<rect width="462" height="44" fill="white"/>
</clipPath>
</defs>
</svg>
